<svg width="195" height="90" viewBox="0 0 195 90" fill="none" xmlns="http://www.w3.org/2000/svg">
<path d="M61.7825 48.7915C62.0378 48.7915 62.2467 48.772 62.4091 48.733C62.5793 48.6862 62.7147 48.6277 62.8152 48.5575C62.9158 48.4795 62.9854 48.3899 63.0241 48.2885C63.0628 48.1871 63.0821 48.0741 63.0821 47.9493C63.0821 47.6842 62.9583 47.4658 62.7108 47.2943C62.4633 47.1149 62.0378 46.9239 61.4344 46.7211C61.1714 46.6276 60.9084 46.5223 60.6454 46.4053C60.3824 46.2805 60.1465 46.1285 59.9376 45.9491C59.7288 45.762 59.5586 45.5398 59.4271 45.2824C59.2956 45.0173 59.2298 44.6976 59.2298 44.3233C59.2298 43.949 59.2994 43.6137 59.4387 43.3174C59.5779 43.0133 59.7752 42.7559 60.0304 42.5454C60.2857 42.3348 60.5951 42.175 60.9587 42.0658C61.3223 41.9489 61.7323 41.8904 62.1887 41.8904C62.7301 41.8904 63.1981 41.9489 63.5927 42.0658C63.9872 42.1828 64.3121 42.3115 64.5673 42.4518L64.0452 43.8905C63.8209 43.7735 63.5695 43.6722 63.291 43.5864C63.0202 43.4928 62.6915 43.446 62.3047 43.446C61.8715 43.446 61.5582 43.5084 61.3648 43.6332C61.1792 43.7502 61.0863 43.9334 61.0863 44.1829C61.0863 44.3311 61.1212 44.4559 61.1908 44.5572C61.2604 44.6586 61.3571 44.7522 61.4809 44.838C61.6124 44.9159 61.7593 44.99 61.9218 45.0602C62.092 45.1226 62.2776 45.1889 62.4787 45.259C62.8965 45.415 63.26 45.5709 63.5695 45.7269C63.8789 45.8751 64.1341 46.0505 64.3353 46.2533C64.5441 46.456 64.6988 46.6938 64.7994 46.9668C64.9 47.2397 64.9502 47.5711 64.9502 47.961C64.9502 48.7174 64.6872 49.3061 64.1612 49.7272C63.6352 50.1405 62.8423 50.3471 61.7825 50.3471C61.4267 50.3471 61.1057 50.3237 60.8195 50.2769C60.5333 50.238 60.278 50.1873 60.0537 50.1249C59.8371 50.0625 59.6475 49.9962 59.4851 49.926C59.3304 49.8559 59.1989 49.7896 59.0906 49.7272L59.6011 48.2768C59.8409 48.4094 60.1349 48.5302 60.483 48.6394C60.8388 48.7408 61.272 48.7915 61.7825 48.7915ZM69.5803 46.92C69.5803 46.3585 69.5068 45.9608 69.3598 45.7269C69.2206 45.493 68.9769 45.376 68.6288 45.376C68.5205 45.376 68.4084 45.3838 68.2923 45.3994C68.1763 45.4072 68.0641 45.4189 67.9558 45.4345V50.1834H66.2269V44.2414C66.3739 44.2024 66.5441 44.1634 66.7375 44.1244C66.9386 44.0777 67.1475 44.0387 67.3641 44.0075C67.5884 43.9685 67.8166 43.9412 68.0486 43.9256C68.2807 43.9022 68.5089 43.8905 68.7332 43.8905C69.1742 43.8905 69.53 43.949 69.8008 44.066C70.0792 44.1751 70.3074 44.3077 70.4853 44.4637C70.7329 44.2843 71.0152 44.1439 71.3324 44.0426C71.6573 43.9412 71.9551 43.8905 72.2258 43.8905C72.7132 43.8905 73.1116 43.9607 73.421 44.1011C73.7381 44.2336 73.9895 44.4247 74.1752 44.6742C74.3608 44.9237 74.4885 45.22 74.5581 45.5632C74.6277 45.9063 74.6625 46.2883 74.6625 46.7094V50.1834H72.9336V46.92C72.9336 46.3585 72.8602 45.9608 72.7132 45.7269C72.5739 45.493 72.3303 45.376 71.9822 45.376C71.8893 45.376 71.7578 45.3994 71.5877 45.4462C71.4252 45.493 71.2898 45.5515 71.1815 45.6216C71.2357 45.801 71.2705 45.992 71.286 46.1948C71.3014 46.3897 71.3092 46.6003 71.3092 46.8264V50.1834H69.5803V46.92ZM78.5648 48.9669C78.735 48.9669 78.8974 48.963 79.0521 48.9552C79.2068 48.9474 79.3306 48.9357 79.4234 48.9201V47.5984C79.3538 47.5828 79.2494 47.5672 79.1101 47.5516C78.9709 47.536 78.8433 47.5282 78.7272 47.5282C78.5648 47.5282 78.4101 47.5399 78.2631 47.5633C78.1239 47.5789 78.0001 47.614 77.8918 47.6686C77.7835 47.7231 77.6984 47.7972 77.6365 47.8908C77.5746 47.9844 77.5437 48.1013 77.5437 48.2417C77.5437 48.5146 77.6327 48.7057 77.8106 48.8148C77.9962 48.9162 78.2476 48.9669 78.5648 48.9669ZM78.4256 43.8671C78.9361 43.8671 79.3615 43.9256 79.7019 44.0426C80.0423 44.1595 80.313 44.3272 80.5141 44.5455C80.723 44.7639 80.87 45.029 80.9551 45.3409C81.0402 45.6528 81.0827 45.9998 81.0827 46.3819V50.0079C80.8352 50.0625 80.4909 50.1249 80.05 50.1951C79.6091 50.273 79.0753 50.312 78.4488 50.312C78.0542 50.312 77.6945 50.2769 77.3697 50.2068C77.0525 50.1366 76.7779 50.0235 76.5458 49.8676C76.3138 49.7038 76.1358 49.4933 76.0121 49.2359C75.8883 48.9786 75.8264 48.6628 75.8264 48.2885C75.8264 47.9298 75.896 47.6257 76.0353 47.3761C76.1822 47.1266 76.3756 46.9278 76.6154 46.7796C76.8552 46.6315 77.1298 46.5262 77.4393 46.4638C77.7487 46.3936 78.0697 46.3585 78.4023 46.3585C78.6267 46.3585 78.8239 46.3702 78.9941 46.3936C79.172 46.4092 79.3151 46.4326 79.4234 46.4638V46.3C79.4234 46.0037 79.3345 45.7659 79.1566 45.5865C78.9786 45.4072 78.6692 45.3175 78.2283 45.3175C77.9343 45.3175 77.6443 45.3409 77.358 45.3877C77.0718 45.4267 76.8243 45.4852 76.6154 45.5632L76.395 44.1595C76.4955 44.1283 76.6193 44.0972 76.7663 44.066C76.921 44.027 77.0873 43.9958 77.2652 43.9724C77.4431 43.9412 77.6288 43.9178 77.8222 43.9022C78.0233 43.8788 78.2244 43.8671 78.4256 43.8671ZM86.3245 45.5748C86.1698 45.5359 85.988 45.4969 85.7791 45.4579C85.5703 45.4111 85.346 45.3877 85.1062 45.3877C84.9979 45.3877 84.8664 45.3994 84.7116 45.4228C84.5647 45.4384 84.4525 45.4579 84.3751 45.4813V50.1834H82.6463V44.3584C82.9557 44.2492 83.3192 44.1478 83.737 44.0543C84.1624 43.9529 84.6343 43.9022 85.1526 43.9022C85.2454 43.9022 85.3576 43.91 85.4891 43.9256C85.6206 43.9334 85.7521 43.949 85.8836 43.9724C86.0151 43.988 86.1466 44.0114 86.2781 44.0426C86.4096 44.066 86.5218 44.0972 86.6146 44.1361L86.3245 45.5748ZM87.4832 42.4986L89.2121 42.2179V44.0309H91.2891V45.4813H89.2121V47.6452C89.2121 48.0117 89.274 48.3041 89.3978 48.5224C89.5293 48.7408 89.7884 48.8499 90.1752 48.8499C90.3608 48.8499 90.5504 48.8343 90.7437 48.8032C90.9449 48.7642 91.1267 48.7135 91.2891 48.6511L91.5328 50.0079C91.3239 50.0937 91.0918 50.1678 90.8366 50.2302C90.5813 50.2925 90.268 50.3237 89.8967 50.3237C89.4248 50.3237 89.0342 50.2613 88.7248 50.1366C88.4153 50.004 88.1678 49.8247 87.9822 49.5985C87.7965 49.3646 87.665 49.0839 87.5876 48.7564C87.518 48.4289 87.4832 48.0663 87.4832 47.6686V42.4986ZM98.7771 42.0775V43.6332H96.352V50.1834H94.5419V43.6332H92.1168V42.0775H98.7771ZM98.6617 47.1539C98.6617 46.6081 98.7429 46.1324 98.9054 45.7269C99.0756 45.3136 99.296 44.9705 99.5668 44.6976C99.8375 44.4247 100.147 44.218 100.495 44.0777C100.851 43.9373 101.214 43.8671 101.586 43.8671C102.452 43.8671 103.137 44.1361 103.64 44.6742C104.142 45.2044 104.394 45.9881 104.394 47.0252C104.394 47.1266 104.39 47.2397 104.382 47.3645C104.374 47.4814 104.367 47.5867 104.359 47.6803H100.437C100.476 48.039 100.642 48.3236 100.936 48.5341C101.23 48.7447 101.624 48.8499 102.119 48.8499C102.437 48.8499 102.746 48.8226 103.048 48.7681C103.357 48.7057 103.609 48.6316 103.802 48.5458L104.034 49.9611C103.941 50.0079 103.817 50.0547 103.663 50.1015C103.508 50.1483 103.334 50.1873 103.141 50.2185C102.955 50.2574 102.754 50.2886 102.537 50.312C102.321 50.3354 102.104 50.3471 101.887 50.3471C101.338 50.3471 100.859 50.2652 100.449 50.1015C100.046 49.9377 99.7099 49.7155 99.4391 49.4348C99.1761 49.1463 98.9789 48.807 98.8474 48.4172C98.7236 48.0273 98.6617 47.6062 98.6617 47.1539ZM102.723 46.4872C102.715 46.339 102.688 46.1948 102.642 46.0544C102.603 45.9141 102.537 45.7893 102.444 45.6801C102.359 45.5709 102.247 45.4813 102.108 45.4111C101.976 45.3409 101.81 45.3058 101.609 45.3058C101.416 45.3058 101.249 45.3409 101.11 45.4111C100.971 45.4735 100.855 45.5593 100.762 45.6684C100.669 45.7776 100.596 45.9063 100.541 46.0544C100.495 46.1948 100.46 46.339 100.437 46.4872H102.723ZM105.438 47.1071C105.438 46.6626 105.508 46.2455 105.647 45.8556C105.794 45.4579 106.003 45.1148 106.273 44.8263C106.544 44.5299 106.873 44.296 107.26 44.1244C107.647 43.9529 108.087 43.8671 108.583 43.8671C108.907 43.8671 109.205 43.8983 109.476 43.9607C109.747 44.0153 110.01 44.0972 110.265 44.2063L109.905 45.5982C109.743 45.5359 109.565 45.4813 109.372 45.4345C109.178 45.3877 108.962 45.3643 108.722 45.3643C108.211 45.3643 107.828 45.5242 107.573 45.8439C107.326 46.1636 107.202 46.5847 107.202 47.1071C107.202 47.6608 107.318 48.0897 107.55 48.3938C107.79 48.6979 108.204 48.8499 108.791 48.8499C109 48.8499 109.225 48.8304 109.464 48.7915C109.704 48.7525 109.925 48.6901 110.126 48.6043L110.369 50.0313C110.168 50.1171 109.917 50.1912 109.615 50.2535C109.314 50.3159 108.981 50.3471 108.617 50.3471C108.06 50.3471 107.581 50.2652 107.179 50.1015C106.776 49.9299 106.444 49.6999 106.181 49.4114C105.925 49.1229 105.736 48.7837 105.612 48.3938C105.496 47.9961 105.438 47.5672 105.438 47.1071ZM111.53 50.1834V41.3874L113.259 41.1067V44.0543C113.375 44.0153 113.522 43.9802 113.7 43.949C113.885 43.91 114.063 43.8905 114.233 43.8905C114.728 43.8905 115.138 43.9607 115.463 44.1011C115.796 44.2336 116.059 44.4247 116.252 44.6742C116.453 44.9237 116.593 45.22 116.67 45.5632C116.755 45.9063 116.798 46.2883 116.798 46.7094V50.1834H115.069V46.92C115.069 46.3585 114.995 45.9608 114.848 45.7269C114.709 45.493 114.446 45.376 114.059 45.376C113.905 45.376 113.758 45.3916 113.618 45.4228C113.487 45.4462 113.367 45.4735 113.259 45.5047V50.1834H111.53ZM126.65 50.1834C126.565 49.9026 126.468 49.6141 126.36 49.3178C126.259 49.0215 126.159 48.7252 126.058 48.4289H122.925C122.825 48.7252 122.72 49.0215 122.612 49.3178C122.511 49.6141 122.419 49.9026 122.333 50.1834H120.454C120.755 49.31 121.042 48.5029 121.312 47.7621C121.583 47.0213 121.846 46.3234 122.101 45.6684C122.364 45.0134 122.62 44.3935 122.867 43.8086C123.122 43.216 123.385 42.639 123.656 42.0775H125.385C125.648 42.639 125.907 43.216 126.163 43.8086C126.418 44.3935 126.673 45.0134 126.928 45.6684C127.191 46.3234 127.458 47.0213 127.729 47.7621C128 48.5029 128.286 49.31 128.588 50.1834H126.65ZM124.48 43.9139C124.441 44.0309 124.383 44.1907 124.306 44.3935C124.229 44.5962 124.14 44.8302 124.039 45.0953C123.939 45.3604 123.826 45.6528 123.703 45.9725C123.587 46.2922 123.467 46.6276 123.343 46.9785H125.629C125.505 46.6276 125.385 46.2922 125.269 45.9725C125.153 45.6528 125.041 45.3604 124.933 45.0953C124.832 44.8302 124.743 44.5962 124.666 44.3935C124.588 44.1907 124.526 44.0309 124.48 43.9139ZM133.423 47.1539C133.423 46.6159 133.303 46.187 133.063 45.8673C132.823 45.5398 132.468 45.376 131.996 45.376C131.841 45.376 131.698 45.3838 131.566 45.3994C131.435 45.4072 131.327 45.4189 131.242 45.4345V48.5809C131.35 48.6511 131.489 48.7096 131.659 48.7564C131.837 48.8032 132.015 48.8265 132.193 48.8265C133.013 48.8265 133.423 48.269 133.423 47.1539ZM135.187 47.1071C135.187 47.5828 135.129 48.0156 135.013 48.4055C134.897 48.7954 134.726 49.1307 134.502 49.4114C134.278 49.6921 133.999 49.9104 133.667 50.0664C133.334 50.2224 132.951 50.3003 132.518 50.3003C132.278 50.3003 132.054 50.2769 131.845 50.2302C131.636 50.1834 131.435 50.1171 131.242 50.0313V52.3473H129.513V44.2414C129.667 44.1946 129.845 44.1517 130.046 44.1128C130.248 44.066 130.456 44.027 130.673 43.9958C130.897 43.9646 131.122 43.9412 131.346 43.9256C131.578 43.9022 131.798 43.8905 132.007 43.8905C132.51 43.8905 132.959 43.9685 133.353 44.1244C133.748 44.2726 134.08 44.487 134.351 44.7678C134.622 45.0407 134.827 45.376 134.966 45.7737C135.113 46.1714 135.187 46.6159 135.187 47.1071ZM140.426 47.1539C140.426 46.6159 140.306 46.187 140.066 45.8673C139.826 45.5398 139.47 45.376 138.998 45.376C138.844 45.376 138.701 45.3838 138.569 45.3994C138.438 45.4072 138.329 45.4189 138.244 45.4345V48.5809C138.352 48.6511 138.492 48.7096 138.662 48.7564C138.84 48.8032 139.018 48.8265 139.196 48.8265C140.016 48.8265 140.426 48.269 140.426 47.1539ZM142.189 47.1071C142.189 47.5828 142.131 48.0156 142.015 48.4055C141.899 48.7954 141.729 49.1307 141.505 49.4114C141.28 49.6921 141.002 49.9104 140.669 50.0664C140.337 50.2224 139.954 50.3003 139.52 50.3003C139.281 50.3003 139.056 50.2769 138.848 50.2302C138.639 50.1834 138.438 50.1171 138.244 50.0313V52.3473H136.515V44.2414C136.67 44.1946 136.848 44.1517 137.049 44.1128C137.25 44.066 137.459 44.027 137.676 43.9958C137.9 43.9646 138.124 43.9412 138.349 43.9256C138.581 43.9022 138.801 43.8905 139.01 43.8905C139.513 43.8905 139.961 43.9685 140.356 44.1244C140.75 44.2726 141.083 44.487 141.354 44.7678C141.625 45.0407 141.83 45.376 141.969 45.7737C142.116 46.1714 142.189 46.6159 142.189 47.1071ZM145.955 50.3003C145.452 50.2925 145.042 50.238 144.725 50.1366C144.415 50.0352 144.168 49.8948 143.982 49.7155C143.804 49.5283 143.681 49.3061 143.611 49.0488C143.549 48.7837 143.518 48.4873 143.518 48.1598V41.3874L145.247 41.1067V47.8089C145.247 47.9649 145.259 48.1052 145.282 48.23C145.305 48.3548 145.348 48.46 145.409 48.5458C145.479 48.6316 145.576 48.7018 145.7 48.7564C145.823 48.8109 145.99 48.846 146.199 48.8616L145.955 50.3003ZM148.919 50.1834H147.19V44.0309H148.919V50.1834ZM149.081 42.253C149.081 42.5727 148.977 42.8261 148.768 43.0133C148.567 43.1926 148.327 43.2823 148.048 43.2823C147.77 43.2823 147.526 43.1926 147.317 43.0133C147.116 42.8261 147.016 42.5727 147.016 42.253C147.016 41.9333 147.116 41.6837 147.317 41.5044C147.526 41.3172 147.77 41.2237 148.048 41.2237C148.327 41.2237 148.567 41.3172 148.768 41.5044C148.977 41.6837 149.081 41.9333 149.081 42.253ZM152.876 48.9669C153.046 48.9669 153.209 48.963 153.363 48.9552C153.518 48.9474 153.642 48.9357 153.735 48.9201V47.5984C153.665 47.5828 153.56 47.5672 153.421 47.5516C153.282 47.536 153.154 47.5282 153.038 47.5282C152.876 47.5282 152.721 47.5399 152.574 47.5633C152.435 47.5789 152.311 47.614 152.203 47.6686C152.095 47.7231 152.01 47.7972 151.948 47.8908C151.886 47.9844 151.855 48.1013 151.855 48.2417C151.855 48.5146 151.944 48.7057 152.122 48.8148C152.307 48.9162 152.559 48.9669 152.876 48.9669ZM152.737 43.8671C153.247 43.8671 153.673 43.9256 154.013 44.0426C154.353 44.1595 154.624 44.3272 154.825 44.5455C155.034 44.7639 155.181 45.029 155.266 45.3409C155.351 45.6528 155.394 45.9998 155.394 46.3819V50.0079C155.146 50.0625 154.802 50.1249 154.361 50.1951C153.92 50.273 153.386 50.312 152.76 50.312C152.365 50.312 152.006 50.2769 151.681 50.2068C151.364 50.1366 151.089 50.0235 150.857 49.8676C150.625 49.7038 150.447 49.4933 150.323 49.2359C150.199 48.9786 150.138 48.6628 150.138 48.2885C150.138 47.9298 150.207 47.6257 150.346 47.3761C150.493 47.1266 150.687 46.9278 150.927 46.7796C151.166 46.6315 151.441 46.5262 151.75 46.4638C152.06 46.3936 152.381 46.3585 152.713 46.3585C152.938 46.3585 153.135 46.3702 153.305 46.3936C153.483 46.4092 153.626 46.4326 153.735 46.4638V46.3C153.735 46.0037 153.646 45.7659 153.468 45.5865C153.29 45.4072 152.98 45.3175 152.539 45.3175C152.245 45.3175 151.955 45.3409 151.669 45.3877C151.383 45.4267 151.135 45.4852 150.927 45.5632L150.706 44.1595C150.807 44.1283 150.93 44.0972 151.077 44.066C151.232 44.027 151.398 43.9958 151.576 43.9724C151.754 43.9412 151.94 43.9178 152.133 43.9022C152.334 43.8788 152.536 43.8671 152.737 43.8671ZM156.957 44.2414C157.251 44.1556 157.63 44.0777 158.094 44.0075C158.558 43.9295 159.046 43.8905 159.556 43.8905C160.074 43.8905 160.504 43.9607 160.844 44.1011C161.192 44.2336 161.467 44.4247 161.668 44.6742C161.869 44.9237 162.012 45.22 162.097 45.5632C162.182 45.9063 162.225 46.2883 162.225 46.7094V50.1834H160.496V46.92C160.496 46.3585 160.423 45.9608 160.276 45.7269C160.129 45.493 159.854 45.376 159.452 45.376C159.328 45.376 159.196 45.3838 159.057 45.3994C158.918 45.4072 158.794 45.4189 158.686 45.4345V50.1834H156.957V44.2414ZM163.5 47.1071C163.5 46.6626 163.569 46.2455 163.709 45.8556C163.856 45.4579 164.064 45.1148 164.335 44.8263C164.606 44.5299 164.935 44.296 165.321 44.1244C165.708 43.9529 166.149 43.8671 166.644 43.8671C166.969 43.8671 167.267 43.8983 167.538 43.9607C167.808 44.0153 168.071 44.0972 168.327 44.2063L167.967 45.5982C167.805 45.5359 167.627 45.4813 167.433 45.4345C167.24 45.3877 167.023 45.3643 166.783 45.3643C166.273 45.3643 165.89 45.5242 165.635 45.8439C165.387 46.1636 165.263 46.5847 165.263 47.1071C165.263 47.6608 165.379 48.0897 165.611 48.3938C165.851 48.6979 166.265 48.8499 166.853 48.8499C167.062 48.8499 167.286 48.8304 167.526 48.7915C167.766 48.7525 167.986 48.6901 168.187 48.6043L168.431 50.0313C168.23 50.1171 167.979 50.1912 167.677 50.2535C167.375 50.3159 167.043 50.3471 166.679 50.3471C166.122 50.3471 165.642 50.2652 165.24 50.1015C164.838 49.9299 164.505 49.6999 164.242 49.4114C163.987 49.1229 163.798 48.7837 163.674 48.3938C163.558 47.9961 163.5 47.5672 163.5 47.1071ZM169.007 47.1539C169.007 46.6081 169.088 46.1324 169.25 45.7269C169.421 45.3136 169.641 44.9705 169.912 44.6976C170.183 44.4247 170.492 44.218 170.84 44.0777C171.196 43.9373 171.559 43.8671 171.931 43.8671C172.797 43.8671 173.482 44.1361 173.985 44.6742C174.487 45.2044 174.739 45.9881 174.739 47.0252C174.739 47.1266 174.735 47.2397 174.727 47.3645C174.719 47.4814 174.712 47.5867 174.704 47.6803H170.782C170.821 48.039 170.987 48.3236 171.281 48.5341C171.575 48.7447 171.969 48.8499 172.465 48.8499C172.782 48.8499 173.091 48.8226 173.393 48.7681C173.702 48.7057 173.954 48.6316 174.147 48.5458L174.379 49.9611C174.286 50.0079 174.162 50.0547 174.008 50.1015C173.853 50.1483 173.679 50.1873 173.486 50.2185C173.3 50.2574 173.099 50.2886 172.882 50.312C172.666 50.3354 172.449 50.3471 172.232 50.3471C171.683 50.3471 171.204 50.2652 170.794 50.1015C170.391 49.9377 170.055 49.7155 169.784 49.4348C169.521 49.1463 169.324 48.807 169.192 48.4172C169.069 48.0273 169.007 47.6062 169.007 47.1539ZM173.068 46.4872C173.06 46.339 173.033 46.1948 172.987 46.0544C172.948 45.9141 172.882 45.7893 172.789 45.6801C172.704 45.5709 172.592 45.4813 172.453 45.4111C172.321 45.3409 172.155 45.3058 171.954 45.3058C171.761 45.3058 171.594 45.3409 171.455 45.4111C171.316 45.4735 171.2 45.5593 171.107 45.6684C171.014 45.7776 170.941 45.9063 170.886 46.0544C170.84 46.1948 170.805 46.339 170.782 46.4872H173.068ZM177.825 48.9318C178.142 48.9318 178.367 48.9006 178.498 48.8382C178.63 48.7759 178.696 48.655 178.696 48.4756C178.696 48.3353 178.61 48.2144 178.44 48.113C178.27 48.0039 178.011 47.883 177.663 47.7504C177.392 47.6491 177.145 47.5438 176.92 47.4346C176.704 47.3255 176.518 47.1968 176.363 47.0486C176.209 46.8927 176.089 46.7094 176.004 46.4989C175.918 46.2884 175.876 46.0349 175.876 45.7386C175.876 45.1616 176.089 44.7054 176.514 44.3701C176.94 44.0348 177.524 43.8671 178.266 43.8671C178.637 43.8671 178.993 43.9022 179.334 43.9724C179.674 44.0348 179.945 44.105 180.146 44.1829L179.844 45.5398C179.643 45.4696 179.423 45.4072 179.183 45.3526C178.951 45.298 178.688 45.2707 178.394 45.2707C177.852 45.2707 177.582 45.4228 177.582 45.7269C177.582 45.7971 177.593 45.8595 177.616 45.9141C177.64 45.9686 177.686 46.0232 177.756 46.0778C177.825 46.1246 177.918 46.1792 178.034 46.2416C178.158 46.2961 178.313 46.3585 178.498 46.4287C178.877 46.5691 179.191 46.7094 179.438 46.8498C179.686 46.9824 179.879 47.1305 180.018 47.2943C180.165 47.4502 180.266 47.6257 180.32 47.8206C180.382 48.0156 180.413 48.2417 180.413 48.499C180.413 49.1073 180.185 49.5673 179.728 49.8793C179.28 50.1912 178.641 50.3471 177.814 50.3471C177.272 50.3471 176.82 50.3003 176.456 50.2068C176.1 50.1132 175.853 50.0352 175.713 49.9728L176.004 48.5575C176.297 48.6745 176.599 48.7681 176.909 48.8382C177.218 48.9006 177.524 48.9318 177.825 48.9318Z" fill="white"/>
<path fill-rule="evenodd" clip-rule="evenodd" d="M36.2211 25.3891C34.9341 26.1174 34.8699 26.5102 34.8699 33.6698V40.2264H45.3152H55.7604V33.6805C55.7604 26.5837 55.7285 26.384 54.4424 25.4605C53.8365 25.0253 53.5883 25.0133 45.3422 25.0189C37.7766 25.0238 36.7957 25.0637 36.2211 25.3891ZM38.1346 32.1674C38.3161 32.3673 38.3835 33.3722 38.3393 35.2209C38.2755 37.8946 38.2578 37.9787 37.7453 38.045C37.2193 38.1132 37.2173 38.1012 37.2173 35.1345C37.2173 33.4963 37.2876 32.0912 37.3737 32.0127C37.6128 31.7946 37.8371 31.8402 38.1346 32.1674ZM13.4641 35.307C12.2914 35.8723 11.4647 36.9195 11.157 38.2292C10.9908 38.9369 10.9268 42.1132 10.9737 47.3244C11.0514 55.9859 11.0474 55.9576 12.3762 57.0902C13.5559 58.0958 14.3544 58.2255 19.3707 58.2255C21.9569 58.2255 24.0727 58.3074 24.0727 58.4077C24.0727 58.5081 23.9579 58.8906 23.8178 59.2577L23.5626 59.9254L21.0846 59.9862C19.0754 60.0352 18.5602 60.1142 18.3605 60.4037C18.1821 60.6626 18.1999 60.8546 18.4257 61.1032C18.7006 61.4054 19.5667 61.4392 25.8059 61.3888L32.8748 61.3323V60.6896V60.0466L30.3156 59.9397L27.7567 59.8325L27.4527 59.029L27.1488 58.2255H31.9951C35.7647 58.2255 36.779 58.2827 36.5601 58.4825C36.1137 58.8899 36.2224 60.1025 36.7477 60.5824C37.1996 60.995 37.53 61.0109 45.5182 61.0109C53.5809 61.0109 53.8371 60.9979 54.4424 60.5635C55.7652 59.6135 55.7604 59.6515 55.7604 49.9867V41.0836H45.3622C37.5877 41.0836 34.8928 41.0186 34.6823 40.8266C34.4915 40.6521 34.4006 39.6504 34.4006 37.7194V34.8697L24.3661 34.8791C14.8776 34.8882 14.2845 34.9116 13.4641 35.307ZM31.8186 40.2209V43.2153L32.557 43.5636C33.0617 43.8021 34.186 43.9499 36.1108 44.0308C38.5846 44.1348 38.8299 44.178 38.1308 44.3843L37.3347 44.6189L37.2718 50.2437L37.2096 55.8683H26.1923C18.4536 55.8683 15.0006 55.7958 14.5887 55.6242C13.3442 55.1067 13.2754 54.6326 13.2754 46.5619C13.2754 38.74 13.3641 38.0024 14.3683 37.4693C14.6539 37.3179 17.6962 37.2373 23.3098 37.2331L31.8186 37.2266V40.2209ZM14.8476 38.4654C14.3274 38.9898 14.3434 39.4301 14.8992 39.8889C15.501 40.3863 16.3653 40.2424 16.7228 39.5854C17.3065 38.5129 15.7325 37.5726 14.8476 38.4654Z" fill="white"/>
</svg>
